# xmcd
#
# Track frame offsets:
#	150
#	18598
#	35485
#	56401
#	74730
#	92841
#	112416
#	134303
#	154294
#	173354
#	199544
#
# Disc length: 2864 seconds
#
# Revision: 1
# Processed by: cddbd v1.4PL0 Copyright (c) Steve Scherf et al.
# Submitted via: audiograbber 1.81.03
#
DISCID=9a0b2e0b
DTITLE=Jimmy`Fraser - Bay Ridges Blues
DYEAR=2000
DGENRE=
TTITLE0=King of the Blues
TTITLE1=Stop Messin Around
TTITLE2=Mr siegal
TTITLE3=Easy does It
TTITLE4=Days Like this
TTITLE5=Bay Ridges Blues
TTITLE6=Sweet Home Chicago
TTITLE7=You Gotta Do What You Gotta Do
TTITLE8=A Man Without A Woman
TTITLE9=Rock Me Baby
TTITLE10=Tore Down
EXTD=
EXTT0=
EXTT1=
EXTT2=
EXTT3=
EXTT4=
EXTT5=
EXTT6=
EXTT7=
EXTT8=
EXTT9=
EXTT10=
PLAYORDER=
